<?xml version="1.0" encoding="utf-8"?><svg version="1.1" id="Layer_1" xmlns="http://www.w3.org/2000/svg" xmlns:xlink="http://www.w3.org/1999/xlink" x="0px" y="0px" viewBox="0 0 122.88 122.88" style="enable-background:new 0 0 122.88 122.88" xml:space="preserve"><style type="text/css">.st0{fill-rule:evenodd;clip-rule:evenodd;}</style><g><path class="st0" d="M10.27,0h102.34c5.65,0,10.27,4.62,10.27,10.27v102.34c0,5.65-4.62,10.27-10.27,10.27H10.27 C4.62,122.88,0,118.26,0,112.61V10.27C0,4.62,4.62,0,10.27,0L10.27,0z M51.45,86.83c-2.05,0.68-4.14,1.31-6.19,1.99 c-2.05,0.68-4.09,1.36-6.19,2.05c-4.88,1.57-7.55,2.47-8.13,2.62c-0.58,0.16-0.21-2.1,1-6.82l3.88-14.85L65.09,41.4l15.58,15 L51.45,86.83L51.45,86.83L51.45,86.83z M80.62,30.38c-0.73-0.68-1.57-1.05-2.52-1c-0.94,0-1.78,0.37-2.47,1.1l-5.56,5.77 l15.58,15.06l5.61-5.88c0.68-0.68,0.94-1.57,0.94-2.52c0-0.94-0.37-1.84-1.05-2.47L80.62,30.38L80.62,30.38L80.62,30.38z"/></g></svg>